<?xml version="1.0"?>
<svg xmlns="http://www.w3.org/2000/svg" xmlns:xlink="http://www.w3.org/1999/xlink" version="1.1" id="Capa_1" x="0px" y="0px" viewBox="0 0 511.999 511.999" style="enable-background:new 0 0 511.999 511.999;" xml:space="preserve" width="512px" height="512px" class=""><g><g>
	<g>
		<path d="M510.632,365.061c-11.059-44.239-31.213-68.586-53.245-81.362c6-7.646,9.591-17.268,9.591-27.719    c0-5.258-0.915-10.305-2.58-14.999h2.58c24.812,0,44.998-20.186,44.998-44.998V75.989c0-24.812-20.186-44.998-44.998-44.998    H346.984c-24.812,0-44.998,20.186-44.998,44.998v119.994c0,5.856,1.136,11.448,3.181,16.585    c-19.096,5.206-33.179,22.691-33.179,43.413v29.999c0,4.143,1.68,7.894,4.395,10.608c25.818,25.817,27.144,66.973,4.013,94.388    H209.99v-14.999c0-0.001,0-0.002,0-0.003v-149.99c0-16.87-5.603-32.455-15.04-44.998h30.04c8.284,0,14.999-6.716,14.999-14.999    c0-8.284-6.716-14.999-14.999-14.999h-44.998v-14.999c0-24.812-20.186-44.998-44.998-44.998h-29.999    c-8.284,0-14.999,6.716-14.999,14.999v59.997c0,8.284,6.716,14.999,14.999,14.999h9.781l-27.74,91.539    C37.667,281.068,0,324.204,0,375.976v29.999c0,42.13,34.286,75.034,74.881,75.034c36.284,0,66.662-22.848,73.701-60.035    c4.981,0,143.727,0,154.914,0c6.968,34.19,37.269,59.997,73.488,59.997s66.519-25.807,73.488-59.997h16.507    C496.25,420.973,517.738,393.482,510.632,365.061z M119.994,120.987h14.999c8.271,0,14.999,6.729,14.999,14.999v14.999    c-10.856,0-19.143,0-29.999,0V120.987z M97.878,445.432c-34.707,16.853-67.88-7.482-67.88-39.458    c0-24.81,20.185-44.996,44.994-44.998c0.001,0,0.001,0,0.002,0c0.001,0,0.001,0,0.002,0c24.812,0,44.998,20.186,44.998,44.998    C119.994,423.42,111.313,438.909,97.878,445.432z M179.992,390.975h-31.508c-6.968-34.19-37.269-59.997-73.488-59.997    c-0.001,0-0.002,0-0.003,0c-0.001,0-0.002,0-0.003,0c-12.977,0.001-25.193,3.318-35.849,9.145    c12.737-23.302,37.479-39.143,65.854-39.143c41.353,0,74.997,33.643,74.997,74.997V390.975z M179.992,302.575    c-16.08-16.426-37.492-27.613-61.409-30.717l27.147-89.58c19.646,4.827,34.262,22.59,34.262,43.704V302.575z M331.984,75.99    c0-8.271,6.729-14.999,14.999-14.999h119.994c8.271,0,14.999,6.729,14.999,14.999v14.999H331.984V75.99z M331.984,120.987h149.993    v74.997c0,8.271-6.729,14.999-14.999,14.999c-4.977,0-114.266,0-119.994,0c-8.271,0-14.999-6.729-14.999-14.999V120.987z     M301.986,270.98v-14.999c0-8.271,6.729-14.999,14.999-14.999c10.516,0,94.508,0,104.995,0c8.271,0,14.999,6.729,14.999,14.999    c0,8.271-6.729,14.999-14.999,14.999c-11.397,0-92.06,0-104.995,0H301.986z M376.982,450.972    c-19.554,0-36.226-12.741-42.418-30.199H419.4C413.209,438.231,396.536,450.972,376.982,450.972z M466.978,390.975H316.127    c14.211-28.206,14.21-61.79-0.002-89.996h0.86h90.226c38.004,0,62.314,23.342,74.318,71.359    C483.895,381.801,476.746,390.975,466.978,390.975z" data-original="#000000" class="active-path" data-old_color="#000000" fill="#F16821"/>
	</g>
</g><g>
	<g>
		<circle cx="74.996" cy="405.971" r="14.999" data-original="#000000" class="active-path" data-old_color="#000000" fill="#F16821"/>
	</g>
</g><g>
	<g>
		<path d="M406.981,330.978h-29.999c-8.284,0-14.999,6.716-14.999,14.999s6.716,14.999,14.999,14.999h29.999    c8.284,0,14.999-6.716,14.999-14.999S415.265,330.978,406.981,330.978z" data-original="#000000" class="active-path" data-old_color="#000000" fill="#F16821"/>
	</g>
</g></g> </svg>
