<?xml version="1.0"?>
<svg xmlns="http://www.w3.org/2000/svg" enable-background="new 0 0 24 24" height="512px" viewBox="0 0 24 24" width="512px"><g><path d="m3 23c-.181 0-.362-.065-.506-.196-.101-.093-2.494-2.305-2.494-4.616 0-1.758 1.346-3.188 3-3.188s3 1.43 3 3.188c0 2.312-2.393 4.523-2.494 4.616-.144.131-.325.196-.506.196z" data-original="#000000" class="active-path" data-old_color="#000000" fill="#F16821"/><path d="m15.654 24h-12.654c-.414 0-.75-.336-.75-.75s.336-.75.75-.75h12.654c.142 0 .205-.087.233-.16s.04-.18-.065-.274l-6.651-6.019c-.541-.488-.721-1.244-.459-1.925.263-.682.904-1.122 1.634-1.122h8.654c.414 0 .75.336.75.75s-.336.75-.75.75h-8.654c-.142 0-.205.087-.233.16s-.04.18.065.274l6.651 6.019c.541.488.721 1.244.459 1.925-.263.682-.904 1.122-1.634 1.122z" data-original="#000000" class="active-path" data-old_color="#000000" fill="#F16821"/><path d="m19 0c-2.757 0-5 2.271-5 5.062 0 3.853 4.328 7.6 4.513 7.758.14.12.313.18.487.18s.347-.06.487-.18c.185-.158 4.513-3.905 4.513-7.758 0-2.791-2.243-5.062-5-5.062zm0 7c-1.103 0-2-.897-2-2s.897-2 2-2 2 .897 2 2-.897 2-2 2z" data-original="#000000" class="active-path" data-old_color="#000000" fill="#F16821"/></g> </svg>
